<?xml version="1.0" encoding="UTF-8"?>
<svg xmlns="http://www.w3.org/2000/svg" xmlns:xlink="http://www.w3.org/1999/xlink" width="420pt" height="355pt" viewBox="0 0 420 355" version="1.1">
<g id="surface1">
<path style="fill:none;stroke-width:1;stroke-linecap:butt;stroke-linejoin:miter;stroke:rgb(0%,0%,0%);stroke-opacity:0.701961;stroke-miterlimit:3.25;" d="M 31.027902 148.551232 L 46.111607 144.40669 L 72.897321 139.984507 L 99.683036 138.499296 L 126.472098 139.954401 L 153.261161 144.343134 L 157.848214 145.59419 " transform="matrix(1.166667,0,0,1.167763,0,0)"/>
<path style="fill-rule:nonzero;fill:rgb(0%,0%,0%);fill-opacity:0.701961;stroke-width:1;stroke-linecap:square;stroke-linejoin:miter;stroke:rgb(0%,0%,0%);stroke-opacity:0.701961;stroke-miterlimit:3.25;" d="M 157.610491 142.259155 L 157.6875 142.647183 L 157.828125 143.580458 L 157.891741 144.135739 L 157.921875 144.687676 L 157.915179 145.186092 L 157.848214 145.59419 L 157.707589 145.942077 L 157.459821 146.370246 L 157.148438 146.848592 L 156.803571 147.323592 L 156.1875 148.133099 L 155.909598 148.474296 L 168.351562 148.467606 Z M 157.610491 142.259155 " transform="matrix(1.166667,0,0,1.167763,0,0)"/>
<path style="fill:none;stroke-width:1;stroke-linecap:butt;stroke-linejoin:miter;stroke:rgb(0%,0%,0%);stroke-opacity:0.701961;stroke-miterlimit:3.25;" d="M 26.648438 142.088556 L 39.020089 125.744542 L 60.492188 102.081514 L 83.745536 80.77007 L 108.780134 61.810211 L 135.595982 45.198592 L 164.196429 30.945246 L 173.136161 27.442958 " transform="matrix(1.166667,0,0,1.167763,0,0)"/>
<path style="fill-rule:nonzero;fill:rgb(0%,0%,0%);fill-opacity:0.701961;stroke-width:1;stroke-linecap:square;stroke-linejoin:miter;stroke:rgb(0%,0%,0%);stroke-opacity:0.701961;stroke-miterlimit:3.25;" d="M 170.956473 24.900704 L 171.251116 25.175 L 171.920759 25.837324 L 172.299107 26.245423 L 172.657366 26.666901 L 172.948661 27.075 L 173.136161 27.442958 L 173.233259 27.80088 L 173.296875 28.292606 L 173.327009 28.857923 L 173.340402 29.45 L 173.323661 30.463556 L 173.303571 30.901761 L 183.28125 23.469014 Z M 170.956473 24.900704 " transform="matrix(1.166667,0,0,1.167763,0,0)"/>
<path style="fill:none;stroke-width:1;stroke-linecap:butt;stroke-linejoin:miter;stroke:rgb(0%,0%,0%);stroke-opacity:0.701961;stroke-miterlimit:3.25;" d="M 168.354911 154.883451 L 153.267857 159.024648 L 126.485491 163.446831 L 99.699777 164.928697 L 72.910714 163.476937 L 46.121652 159.088204 L 41.534598 157.837148 " transform="matrix(1.166667,0,0,1.167763,0,0)"/>
<path style="fill-rule:nonzero;fill:rgb(0%,0%,0%);fill-opacity:0.701961;stroke-width:1;stroke-linecap:square;stroke-linejoin:miter;stroke:rgb(0%,0%,0%);stroke-opacity:0.701961;stroke-miterlimit:3.25;" d="M 41.772321 161.172183 L 41.698661 160.78081 L 41.554688 159.847535 L 41.491071 159.292254 L 41.460938 158.743662 L 41.467634 158.241901 L 41.534598 157.837148 L 41.675223 157.489261 L 41.922991 157.057746 L 42.234375 156.582746 L 42.579241 156.104401 L 43.195312 155.301585 L 43.473214 154.960387 L 31.03125 154.960387 Z M 41.772321 161.172183 " transform="matrix(1.166667,0,0,1.167763,0,0)"/>
<path style="fill:none;stroke-width:1;stroke-linecap:butt;stroke-linejoin:miter;stroke:rgb(0%,0%,0%);stroke-opacity:0.701961;stroke-miterlimit:3.25;" d="M 181.359375 163.727817 L 191.939732 261.490845 " transform="matrix(1.166667,0,0,1.167763,0,0)"/>
<path style="fill-rule:nonzero;fill:rgb(0%,0%,0%);fill-opacity:0.701961;stroke-width:1;stroke-linecap:square;stroke-linejoin:miter;stroke:rgb(0%,0%,0%);stroke-opacity:0.701961;stroke-miterlimit:3.25;" d="M 194.959821 260.04912 L 194.625 260.263204 L 193.808036 260.738204 L 193.315848 260.99912 L 192.816964 261.22993 L 192.344866 261.407218 L 191.939732 261.490845 L 191.571429 261.4875 L 191.079241 261.417254 L 190.523438 261.300176 L 189.954241 261.156338 L 188.976562 260.875352 L 188.558036 260.741549 L 193.111607 272.318838 Z M 194.959821 260.04912 " transform="matrix(1.166667,0,0,1.167763,0,0)"/>
<path style="fill:none;stroke-width:1;stroke-linecap:butt;stroke-linejoin:miter;stroke:rgb(0%,0%,0%);stroke-opacity:0.701961;stroke-miterlimit:3.25;" d="M 187.252232 28.714085 L 174.883929 45.058099 L 153.415179 68.721127 L 130.158482 90.035915 L 105.123884 108.995775 L 78.308036 125.604049 L 49.710938 139.860739 L 40.764509 143.363028 " transform="matrix(1.166667,0,0,1.167763,0,0)"/>
<path style="fill-rule:nonzero;fill:rgb(0%,0%,0%);fill-opacity:0.701961;stroke-width:1;stroke-linecap:square;stroke-linejoin:miter;stroke:rgb(0%,0%,0%);stroke-opacity:0.701961;stroke-miterlimit:3.25;" d="M 42.950893 145.898592 L 42.652902 145.627641 L 41.979911 144.968662 L 41.601562 144.557218 L 41.246652 144.135739 L 40.952009 143.730986 L 40.764509 143.363028 L 40.667411 143.005106 L 40.610491 142.51338 L 40.577009 141.944718 L 40.566964 141.355986 L 40.580357 140.339085 L 40.597098 139.90088 L 30.626116 147.336972 Z M 42.950893 145.898592 " transform="matrix(1.166667,0,0,1.167763,0,0)"/>
<path style="fill:none;stroke-width:1;stroke-linecap:butt;stroke-linejoin:miter;stroke:rgb(0%,0%,0%);stroke-opacity:0.701961;stroke-miterlimit:3.25;" d="M 193.252232 31.102465 L 182.558036 128.781866 " transform="matrix(1.166667,0,0,1.167763,0,0)"/>
<path style="fill-rule:nonzero;fill:rgb(0%,0%,0%);fill-opacity:0.701961;stroke-width:1;stroke-linecap:square;stroke-linejoin:miter;stroke:rgb(0%,0%,0%);stroke-opacity:0.701961;stroke-miterlimit:3.25;" d="M 185.819196 128.022535 L 185.440848 128.159683 L 184.543527 128.450704 L 184.007812 128.597887 L 183.46875 128.714965 L 182.973214 128.785211 L 182.558036 128.781866 L 182.196429 128.698239 L 181.731027 128.524296 L 181.215402 128.290141 L 180.686384 128.02588 L 179.792411 127.54419 L 179.414062 127.323415 L 181.376116 139.609859 Z M 185.819196 128.022535 " transform="matrix(1.166667,0,0,1.167763,0,0)"/>
<path style="fill:none;stroke-width:1;stroke-linecap:butt;stroke-linejoin:miter;stroke:rgb(0%,0%,0%);stroke-opacity:0.701961;stroke-miterlimit:3.25;" d="M 201.887277 28.72412 L 326.792411 194.101056 " transform="matrix(1.166667,0,0,1.167763,0,0)"/>
<path style="fill-rule:nonzero;fill:rgb(0%,0%,0%);fill-opacity:0.701961;stroke-width:1;stroke-linecap:square;stroke-linejoin:miter;stroke:rgb(0%,0%,0%);stroke-opacity:0.701961;stroke-miterlimit:3.25;" d="M 328.647321 191.311268 L 328.466518 191.672535 L 328.011161 192.495423 L 327.719866 192.973768 L 327.408482 193.428697 L 327.097098 193.82007 L 326.792411 194.101056 L 326.470982 194.28838 L 326.015625 194.479049 L 325.476562 194.666373 L 324.914062 194.836972 L 323.933036 195.094542 L 323.507812 195.194894 L 333.358259 202.791549 Z M 328.647321 191.311268 " transform="matrix(1.166667,0,0,1.167763,0,0)"/>
<path style="fill:none;stroke-width:1;stroke-linecap:butt;stroke-linejoin:miter;stroke:rgb(0%,0%,0%);stroke-opacity:0.701961;stroke-miterlimit:3.25;" d="M 329.316964 95.448239 L 201.595982 143.553697 " transform="matrix(1.166667,0,0,1.167763,0,0)"/>
<path style="fill-rule:nonzero;fill:rgb(0%,0%,0%);fill-opacity:0.701961;stroke-width:1;stroke-linecap:square;stroke-linejoin:miter;stroke:rgb(0%,0%,0%);stroke-opacity:0.701961;stroke-miterlimit:3.25;" d="M 203.745536 146.116021 L 203.457589 145.84507 L 202.794643 145.172711 L 202.419643 144.761268 L 202.071429 144.333099 L 201.780134 143.921655 L 201.595982 143.553697 L 201.508929 143.19243 L 201.452009 142.700704 L 201.428571 142.128697 L 201.425223 141.54331 L 201.452009 140.526408 L 201.475446 140.088204 L 191.407366 147.390493 Z M 203.745536 146.116021 " transform="matrix(1.166667,0,0,1.167763,0,0)"/>
<path style="fill:none;stroke-width:1;stroke-linecap:butt;stroke-linejoin:miter;stroke:rgb(0%,0%,0%);stroke-opacity:0.701961;stroke-miterlimit:3.25;" d="M 329.789062 85.801056 L 215.219866 29.235915 " transform="matrix(1.166667,0,0,1.167763,0,0)"/>
<path style="fill-rule:nonzero;fill:rgb(0%,0%,0%);fill-opacity:0.701961;stroke-width:1;stroke-linecap:square;stroke-linejoin:miter;stroke:rgb(0%,0%,0%);stroke-opacity:0.701961;stroke-miterlimit:3.25;" d="M 214.811384 32.554225 L 214.811384 32.156162 L 214.851562 31.216197 L 214.895089 30.65757 L 214.96875 30.108979 L 215.075893 29.620599 L 215.219866 29.235915 L 215.417411 28.921479 L 215.742188 28.543486 L 216.140625 28.135387 L 216.565848 27.733979 L 217.329241 27.06162 L 217.664062 26.780634 L 205.449777 24.408979 Z M 214.811384 32.554225 " transform="matrix(1.166667,0,0,1.167763,0,0)"/>
<path style="fill:none;stroke-width:1;stroke-linecap:butt;stroke-linejoin:miter;stroke:rgb(0%,0%,0%);stroke-opacity:0.701961;stroke-miterlimit:3.25;" d="M 329.323661 208.177113 L 201.585938 159.820775 " transform="matrix(1.166667,0,0,1.167763,0,0)"/>
<path style="fill-rule:nonzero;fill:rgb(0%,0%,0%);fill-opacity:0.701961;stroke-width:1;stroke-linecap:square;stroke-linejoin:miter;stroke:rgb(0%,0%,0%);stroke-opacity:0.701961;stroke-miterlimit:3.25;" d="M 201.502232 163.1625 L 201.465402 162.764437 L 201.408482 161.824472 L 201.401786 161.265845 L 201.421875 160.713908 L 201.482143 160.218838 L 201.585938 159.820775 L 201.753348 159.489613 L 202.037946 159.081514 L 202.399554 158.639965 L 202.784598 158.19507 L 203.477679 157.452465 L 203.782366 157.141373 L 191.397321 155.960563 Z M 201.502232 163.1625 " transform="matrix(1.166667,0,0,1.167763,0,0)"/>
<path style="fill:none;stroke-width:1;stroke-linecap:butt;stroke-linejoin:miter;stroke:rgb(0%,0%,0%);stroke-opacity:0.701961;stroke-miterlimit:3.25;" d="M 340.667411 200.342958 L 340.667411 114.194014 " transform="matrix(1.166667,0,0,1.167763,0,0)"/>
<path style="fill-rule:nonzero;fill:rgb(0%,0%,0%);fill-opacity:0.701961;stroke-width:1;stroke-linecap:square;stroke-linejoin:miter;stroke:rgb(0%,0%,0%);stroke-opacity:0.701961;stroke-miterlimit:3.25;" d="M 337.506696 115.301232 L 337.868304 115.123944 L 338.732143 114.742606 L 339.247768 114.538556 L 339.770089 114.357923 L 340.258929 114.2375 L 340.667411 114.194014 L 341.039062 114.2375 L 341.517857 114.357923 L 342.060268 114.538556 L 342.609375 114.742606 L 343.550223 115.123944 L 343.948661 115.301232 L 340.667411 103.29912 Z M 337.506696 115.301232 " transform="matrix(1.166667,0,0,1.167763,0,0)"/>
<path style="fill:none;stroke-width:1;stroke-linecap:butt;stroke-linejoin:miter;stroke:rgb(0%,0%,0%);stroke-opacity:0.701961;stroke-miterlimit:3.25;" d="M 331.587054 220.510387 L 319.577009 231.137676 L 297.174107 247.130458 L 273.455357 260.450528 L 248.424107 271.097887 L 222.077009 279.07588 L 217.03125 280.042606 " transform="matrix(1.166667,0,0,1.167763,0,0)"/>
<path style="fill-rule:nonzero;fill:rgb(0%,0%,0%);fill-opacity:0.701961;stroke-width:1;stroke-linecap:square;stroke-linejoin:miter;stroke:rgb(0%,0%,0%);stroke-opacity:0.701961;stroke-miterlimit:3.25;" d="M 218.715402 282.936092 L 218.470982 282.61831 L 217.935268 281.842254 L 217.633929 281.370599 L 217.362723 280.895599 L 217.148438 280.437324 L 217.03125 280.042606 L 217.004464 279.671303 L 217.03125 279.176232 L 217.104911 278.614261 L 217.202009 278.032218 L 217.402902 277.035387 L 217.5 276.610563 L 206.330357 282.093134 Z M 218.715402 282.936092 " transform="matrix(1.166667,0,0,1.167763,0,0)"/>
<path style="fill:none;stroke-width:1;stroke-linecap:butt;stroke-linejoin:miter;stroke:rgb(0%,0%,0%);stroke-opacity:0.701961;stroke-miterlimit:3.25;" d="M 184.751116 277.055458 L 37.684152 165.664613 " transform="matrix(1.166667,0,0,1.167763,0,0)"/>
<path style="fill-rule:nonzero;fill:rgb(0%,0%,0%);fill-opacity:0.701961;stroke-width:1;stroke-linecap:square;stroke-linejoin:miter;stroke:rgb(0%,0%,0%);stroke-opacity:0.701961;stroke-miterlimit:3.25;" d="M 36.659598 168.84912 L 36.733259 168.457746 L 36.950893 167.537852 L 37.098214 166.999296 L 37.272321 166.477465 L 37.469866 166.015845 L 37.684152 165.664613 L 37.941964 165.393662 L 38.327009 165.085915 L 38.795759 164.761444 L 39.287946 164.443662 L 40.168527 163.925176 L 40.546875 163.714437 L 28.998884 159.084859 Z M 36.659598 168.84912 " transform="matrix(1.166667,0,0,1.167763,0,0)"/>
<path style="fill:none;stroke-width:1;stroke-linecap:butt;stroke-linejoin:miter;stroke:rgb(0%,0%,0%);stroke-opacity:0.701961;stroke-miterlimit:3.25;" d="M 201.743304 274.707218 L 326.768973 109.527641 " transform="matrix(1.166667,0,0,1.167763,0,0)"/>
<path style="fill-rule:nonzero;fill:rgb(0%,0%,0%);fill-opacity:0.701961;stroke-width:1;stroke-linecap:square;stroke-linejoin:miter;stroke:rgb(0%,0%,0%);stroke-opacity:0.701961;stroke-miterlimit:3.25;" d="M 323.584821 108.507394 L 323.976562 108.580986 L 324.897321 108.798415 L 325.433036 108.945599 L 325.955357 109.119542 L 326.417411 109.316901 L 326.768973 109.527641 L 327.043527 109.785211 L 327.351562 110.176585 L 327.676339 110.641549 L 327.987723 111.13662 L 328.506696 112.013028 L 328.720982 112.394366 L 333.344866 100.843838 Z M 323.584821 108.507394 " transform="matrix(1.166667,0,0,1.167763,0,0)"/>
<path style="fill:none;stroke-width:1;stroke-linecap:butt;stroke-linejoin:miter;stroke:rgb(0%,0%,0%);stroke-opacity:0.701961;stroke-miterlimit:3.25;" d="M 203.504464 276.339613 L 215.511161 265.715669 L 237.914062 249.722887 L 261.632812 236.402817 L 286.664062 225.755458 L 313.011161 217.777465 L 318.060268 216.807394 " transform="matrix(1.166667,0,0,1.167763,0,0)"/>
<path style="fill-rule:nonzero;fill:rgb(0%,0%,0%);fill-opacity:0.701961;stroke-width:1;stroke-linecap:square;stroke-linejoin:miter;stroke:rgb(0%,0%,0%);stroke-opacity:0.701961;stroke-miterlimit:3.25;" d="M 316.379464 213.913908 L 316.617188 214.235035 L 317.15625 215.007746 L 317.457589 215.479401 L 317.732143 215.957746 L 317.939732 216.412676 L 318.060268 216.807394 L 318.090402 217.178697 L 318.060268 217.677113 L 317.983259 218.239085 L 317.886161 218.821127 L 317.688616 219.817958 L 317.591518 220.242782 L 328.757812 214.756866 Z M 316.379464 213.913908 " transform="matrix(1.166667,0,0,1.167763,0,0)"/>
<path style="fill-rule:evenodd;fill:rgb(50.980392%,47.058824%,88.627451%);fill-opacity:1;stroke-width:1;stroke-linecap:square;stroke-linejoin:miter;stroke:rgb(0%,0%,0%);stroke-opacity:0.701961;stroke-miterlimit:3.25;" d="M 31.459821 151.7625 C 31.459821 148.547887 30.184152 145.460387 27.907366 143.182394 C 25.633929 140.911092 22.546875 139.633275 19.329241 139.633275 C 16.111607 139.633275 13.027902 140.911092 10.754464 143.182394 C 8.477679 145.460387 7.198661 148.547887 7.198661 151.7625 C 7.198661 154.980458 8.477679 158.067958 10.754464 160.339261 C 13.027902 162.613908 16.111607 163.891725 19.329241 163.891725 C 22.546875 163.891725 25.633929 162.613908 27.907366 160.339261 C 30.184152 158.067958 31.459821 154.980458 31.459821 151.7625 Z M 31.459821 151.7625 " transform="matrix(1.166667,0,0,1.167763,0,0)"/>
<path style=" stroke:none;fill-rule:nonzero;fill:rgb(100%,100%,100%);fill-opacity:1;" d="M 20.339844 180.320312 L 22.238281 180.320312 L 22.238281 173.824219 L 20.175781 174.226562 L 20.175781 173.183594 L 22.21875 172.765625 L 23.367188 172.765625 L 23.367188 180.320312 L 25.246094 180.320312 L 25.246094 181.285156 L 20.339844 181.285156 Z M 20.339844 180.320312 "/>
<path style="fill-rule:evenodd;fill:rgb(50.980392%,47.058824%,88.627451%);fill-opacity:1;stroke-width:1;stroke-linecap:square;stroke-linejoin:miter;stroke:rgb(0%,0%,0%);stroke-opacity:0.701961;stroke-miterlimit:3.25;" d="M 192.184152 151.668838 C 192.184152 148.45088 190.905134 145.366725 188.628348 143.088732 C 186.354911 140.81743 183.267857 139.539613 180.053571 139.539613 C 176.835938 139.539613 173.748884 140.81743 171.475446 143.088732 C 169.202009 145.366725 167.922991 148.45088 167.922991 151.668838 C 167.922991 154.886796 169.202009 157.967606 171.475446 160.245599 C 173.748884 162.520246 176.835938 163.798063 180.053571 163.798063 C 183.267857 163.798063 186.354911 162.520246 188.628348 160.245599 C 190.905134 157.967606 192.184152 154.886796 192.184152 151.668838 Z M 192.184152 151.668838 " transform="matrix(1.166667,0,0,1.167763,0,0)"/>
<path style=" stroke:none;fill-rule:nonzero;fill:rgb(100%,100%,100%);fill-opacity:1;" d="M 208.652344 180.207031 L 212.664062 180.207031 L 212.664062 181.175781 L 207.269531 181.175781 L 207.269531 180.207031 C 207.707031 179.761719 208.296875 179.152344 209.054688 178.382812 C 209.804688 177.617188 210.28125 177.125 210.476562 176.90625 C 210.839844 176.496094 211.097656 176.148438 211.242188 175.867188 C 211.386719 175.574219 211.460938 175.292969 211.460938 175.007812 C 211.460938 174.5625 211.300781 174.195312 210.988281 173.914062 C 210.667969 173.621094 210.257812 173.476562 209.746094 173.476562 C 209.382812 173.476562 209 173.542969 208.597656 173.675781 C 208.207031 173.800781 207.78125 173.988281 207.324219 174.242188 L 207.324219 173.074219 C 207.78125 172.890625 208.214844 172.753906 208.617188 172.65625 C 209.019531 172.558594 209.386719 172.507812 209.730469 172.507812 C 210.605469 172.507812 211.300781 172.726562 211.824219 173.164062 C 212.359375 173.605469 212.628906 174.195312 212.628906 174.9375 C 212.628906 175.292969 212.558594 175.625 212.425781 175.9375 C 212.289062 176.246094 212.054688 176.609375 211.714844 177.035156 C 211.617188 177.144531 211.316406 177.46875 210.804688 178 C 210.292969 178.527344 209.574219 179.261719 208.652344 180.207031 Z M 208.652344 180.207031 "/>
<path style="fill-rule:evenodd;fill:rgb(50.980392%,47.058824%,88.627451%);fill-opacity:1;stroke-width:1;stroke-linecap:square;stroke-linejoin:miter;stroke:rgb(0%,0%,0%);stroke-opacity:0.701961;stroke-miterlimit:3.25;" d="M 206.702009 19.043486 C 206.702009 15.825528 205.426339 12.738028 203.152902 10.46338 C 200.876116 8.192077 197.792411 6.910915 194.574777 6.910915 C 191.357143 6.910915 188.273438 8.192077 185.996652 10.46338 C 183.723214 12.738028 182.444196 15.825528 182.444196 19.043486 C 182.444196 22.258099 183.723214 25.342254 185.996652 27.616901 C 188.273438 29.894894 191.357143 31.172711 194.574777 31.172711 C 197.792411 31.172711 200.876116 29.894894 203.152902 27.616901 C 205.426339 25.342254 206.702009 22.258099 206.702009 19.043486 Z M 206.702009 19.043486 " transform="matrix(1.166667,0,0,1.167763,0,0)"/>
<path style=" stroke:none;fill-rule:nonzero;fill:rgb(100%,100%,100%);fill-opacity:1;" d="M 228.09375 21.703125 C 228.640625 21.824219 229.0625 22.078125 229.367188 22.449219 C 229.683594 22.816406 229.84375 23.269531 229.84375 23.820312 C 229.84375 24.65625 229.550781 25.308594 228.96875 25.769531 C 228.394531 26.238281 227.574219 26.464844 226.507812 26.464844 C 226.152344 26.464844 225.785156 26.429688 225.414062 26.355469 C 225.035156 26.28125 224.648438 26.183594 224.246094 26.042969 L 224.246094 24.933594 C 224.558594 25.113281 224.90625 25.253906 225.285156 25.351562 C 225.671875 25.453125 226.074219 25.496094 226.488281 25.496094 C 227.203125 25.496094 227.75 25.359375 228.128906 25.078125 C 228.503906 24.785156 228.695312 24.367188 228.695312 23.820312 C 228.695312 23.320312 228.515625 22.933594 228.164062 22.652344 C 227.808594 22.371094 227.328125 22.230469 226.707031 22.230469 L 225.703125 22.230469 L 225.703125 21.28125 L 226.742188 21.28125 C 227.3125 21.28125 227.746094 21.167969 228.039062 20.9375 C 228.339844 20.707031 228.492188 20.378906 228.492188 19.949219 C 228.492188 19.527344 228.332031 19.199219 228.019531 18.964844 C 227.714844 18.722656 227.277344 18.601562 226.707031 18.601562 C 226.386719 18.601562 226.050781 18.636719 225.6875 18.710938 C 225.320312 18.773438 224.925781 18.875 224.5 19.019531 L 224.5 18 C 224.9375 17.878906 225.34375 17.789062 225.722656 17.722656 C 226.109375 17.664062 226.46875 17.632812 226.796875 17.632812 C 227.671875 17.632812 228.367188 17.835938 228.875 18.234375 C 229.386719 18.628906 229.640625 19.160156 229.640625 19.839844 C 229.640625 20.316406 229.503906 20.71875 229.242188 21.046875 C 228.972656 21.363281 228.589844 21.582031 228.09375 21.703125 Z M 228.09375 21.703125 "/>
<path style="fill-rule:evenodd;fill:rgb(50.980392%,47.058824%,88.627451%);fill-opacity:1;stroke-width:1;stroke-linecap:square;stroke-linejoin:miter;stroke:rgb(0%,0%,0%);stroke-opacity:0.701961;stroke-miterlimit:3.25;" d="M 352.797991 91.173239 C 352.797991 87.958627 351.518973 84.871127 349.242188 82.593134 C 346.96875 80.321831 343.881696 79.044014 340.667411 79.044014 C 337.449777 79.044014 334.362723 80.321831 332.089286 82.593134 C 329.8125 84.871127 328.533482 87.958627 328.533482 91.173239 C 328.533482 94.391197 329.8125 97.475352 332.089286 99.75 C 334.362723 102.024648 337.449777 103.29912 340.667411 103.29912 C 343.881696 103.29912 346.96875 102.024648 349.242188 99.75 C 351.518973 97.475352 352.797991 94.391197 352.797991 91.173239 Z M 352.797991 91.173239 " transform="matrix(1.166667,0,0,1.167763,0,0)"/>
<path style=" stroke:none;fill-rule:nonzero;fill:rgb(100%,100%,100%);fill-opacity:1;" d="M 398.203125 103.015625 L 395.304688 107.558594 L 398.203125 107.558594 Z M 397.894531 102.011719 L 399.351562 102.011719 L 399.351562 107.558594 L 400.554688 107.558594 L 400.554688 108.523438 L 399.351562 108.523438 L 399.351562 110.53125 L 398.203125 110.53125 L 398.203125 108.523438 L 394.359375 108.523438 L 394.359375 107.410156 Z M 397.894531 102.011719 "/>
<path style="fill-rule:evenodd;fill:rgb(50.980392%,47.058824%,88.627451%);fill-opacity:1;stroke-width:1;stroke-linecap:square;stroke-linejoin:miter;stroke:rgb(0%,0%,0%);stroke-opacity:0.701961;stroke-miterlimit:3.25;" d="M 352.801339 212.472183 C 352.801339 209.254225 351.522321 206.166725 349.245536 203.895423 C 346.972098 201.620775 343.888393 200.342958 340.670759 200.342958 C 337.453125 200.342958 334.366071 201.620775 332.092634 203.895423 C 329.815848 206.166725 328.540179 209.254225 328.540179 212.472183 C 328.540179 215.686796 329.815848 218.774296 332.092634 221.052289 C 334.366071 223.323592 337.453125 224.601408 340.670759 224.601408 C 343.888393 224.601408 346.972098 223.323592 349.245536 221.052289 C 351.522321 218.774296 352.801339 215.686796 352.801339 212.472183 Z M 352.801339 212.472183 " transform="matrix(1.166667,0,0,1.167763,0,0)"/>
<path style=" stroke:none;fill-rule:nonzero;fill:rgb(100%,100%,100%);fill-opacity:1;" d="M 395.054688 243.660156 L 399.574219 243.660156 L 399.574219 244.644531 L 396.113281 244.644531 L 396.113281 246.726562 C 396.28125 246.667969 396.445312 246.625 396.605469 246.597656 C 396.773438 246.574219 396.941406 246.5625 397.113281 246.5625 C 398.0625 246.5625 398.808594 246.824219 399.355469 247.347656 C 399.914062 247.855469 400.195312 248.558594 400.195312 249.445312 C 400.195312 250.371094 399.910156 251.085938 399.339844 251.597656 C 398.777344 252.097656 397.976562 252.34375 396.933594 252.34375 C 396.578125 252.34375 396.210938 252.3125 395.839844 252.253906 C 395.472656 252.191406 395.089844 252.101562 394.691406 251.980469 L 394.691406 250.832031 C 395.042969 251.011719 395.402344 251.15625 395.765625 251.25 C 396.128906 251.335938 396.511719 251.378906 396.914062 251.378906 C 397.570312 251.378906 398.085938 251.210938 398.464844 250.867188 C 398.851562 250.515625 399.046875 250.042969 399.046875 249.445312 C 399.046875 248.859375 398.851562 248.398438 398.464844 248.058594 C 398.085938 247.707031 397.570312 247.527344 396.914062 247.527344 C 396.609375 247.527344 396.300781 247.566406 395.984375 247.636719 C 395.679688 247.703125 395.371094 247.800781 395.054688 247.949219 Z M 395.054688 243.660156 "/>
<path style="fill-rule:evenodd;fill:rgb(50.980392%,47.058824%,88.627451%);fill-opacity:1;stroke-width:1;stroke-linecap:square;stroke-linejoin:miter;stroke:rgb(0%,0%,0%);stroke-opacity:0.701961;stroke-miterlimit:3.25;" d="M 206.551339 284.377817 C 206.551339 281.163204 205.272321 278.079049 202.995536 275.801056 C 200.722098 273.526408 197.638393 272.248592 194.420759 272.248592 C 191.203125 272.248592 188.116071 273.526408 185.842634 275.801056 C 183.565848 278.079049 182.290179 281.163204 182.290179 284.377817 C 182.290179 287.59912 183.565848 290.683275 185.842634 292.957923 C 188.116071 295.229225 191.203125 296.507042 194.420759 296.507042 C 197.638393 296.507042 200.722098 295.229225 202.995536 292.957923 C 205.272321 290.683275 206.551339 287.59912 206.551339 284.377817 Z M 206.551339 284.377817 " transform="matrix(1.166667,0,0,1.167763,0,0)"/>
<path style=" stroke:none;fill-rule:nonzero;fill:rgb(100%,100%,100%);fill-opacity:1;" d="M 227.019531 331.445312 C 226.507812 331.445312 226.097656 331.621094 225.796875 331.972656 C 225.492188 332.328125 225.34375 332.808594 225.34375 333.414062 C 225.34375 334.035156 225.492188 334.523438 225.796875 334.875 C 226.097656 335.230469 226.507812 335.402344 227.019531 335.402344 C 227.539062 335.402344 227.949219 335.230469 228.242188 334.875 C 228.542969 334.523438 228.695312 334.035156 228.695312 333.414062 C 228.695312 332.808594 228.542969 332.328125 228.242188 331.972656 C 227.949219 331.621094 227.539062 331.445312 227.019531 331.445312 Z M 229.316406 327.832031 L 229.316406 328.871094 C 229.023438 328.738281 228.722656 328.632812 228.421875 328.5625 C 228.132812 328.488281 227.84375 328.453125 227.566406 328.453125 C 226.800781 328.453125 226.21875 328.707031 225.816406 329.21875 C 225.414062 329.730469 225.1875 330.507812 225.140625 331.554688 C 225.359375 331.226562 225.636719 330.980469 225.980469 330.804688 C 226.316406 330.625 226.691406 330.53125 227.09375 330.53125 C 227.941406 330.53125 228.613281 330.796875 229.117188 331.316406 C 229.613281 331.828125 229.863281 332.53125 229.863281 333.414062 C 229.863281 334.289062 229.597656 334.996094 229.078125 335.53125 C 228.570312 336.054688 227.878906 336.316406 227.019531 336.316406 C 226.035156 336.316406 225.277344 335.941406 224.757812 335.183594 C 224.25 334.433594 223.992188 333.335938 223.992188 331.902344 C 223.992188 330.5625 224.308594 329.492188 224.941406 328.6875 C 225.582031 327.886719 226.441406 327.484375 227.511719 327.484375 C 227.804688 327.484375 228.09375 327.515625 228.386719 327.574219 C 228.679688 327.625 228.988281 327.714844 229.316406 327.832031 Z M 229.316406 327.832031 "/>
</g>
</svg>
